<?xml version="1.0" encoding="utf-8"?>
<!-- Generator: Adobe Illustrator 18.1.1, SVG Export Plug-In . SVG Version: 6.00 Build 0)  -->
<svg version="1.1" xmlns="http://www.w3.org/2000/svg" xmlns:xlink="http://www.w3.org/1999/xlink" x="0px" y="0px"
	 viewBox="0 0 1402 476.1" enable-background="new 0 0 1402 476.1" xml:space="preserve">
<g id="Layer_2">
</g>
<g id="Colour">
</g>
<g id="Lines">
</g>
<g id="Layer_4">
	<text transform="matrix(1 0 0 1 509.1591 310.0427)"><tspan x="0" y="0" fill="#FFFFFF" font-family="'FiraSans-Book'" font-size="197.5879">turing</tspan><tspan x="533.5" y="0" fill="#FFD138" font-family="'FiraSans-Book'" font-size="197.5879">la</tspan><tspan x="698.1" y="0" fill="#FFD138" font-family="'FiraSans-Book'" font-size="197.5879" letter-spacing="-3">b</tspan></text>
	<g id="XMLID_91_">
		<g>
			<path fill="#FFFFFF" d="M296,103.2c78.1,2.6,140.6,66.7,140.6,145.4c0,80.3-65.1,145.5-145.4,145.5s-145.4-65.1-145.4-145.5
				c0-47.9,23.2-90.4,58.9-116.9l20.5,66.4c-10.1,13.6-16.1,30.3-16.1,48.6c0,44.8,36.3,81.1,81.1,81.1c44.8,0,81.1-36.3,81.1-81.1
				c0-35.5-22.7-65.6-54.5-76.7L296,103.2z"/>
			<path fill="#FFD138" d="M464.5,247.4c0-95.5-77.4-173-173-173l-2.2-8c1.8-0.1,0,0,1.8,0c100.6,0,182.2,81.6,182.2,182.2
				S391.7,430.8,291,430.8s-182.2-81.6-182.2-182.2c0-65.3,32.4-121.4,84.1-153.5l1.9,8.8c-46,31.1-76.3,83.7-76.3,143.4
				c0,95.5,77.5,173,173,173C387,420.3,464.5,342.9,464.5,247.4z"/>
			<path d="M318.8,247.1c0-15-12.2-27.2-27.2-27.2c-15,0-27.2,12.2-27.2,27.2s12.2,27.2,27.2,27.2
				C306.6,274.3,318.8,262.2,318.8,247.1z M291,281.9c-19.7,0-35.8-16-35.8-35.8c0-19.7,16-35.8,35.8-35.8c19.7,0,35.8,16,35.8,35.8
				C326.8,265.9,310.8,281.9,291,281.9z"/>
		</g>
	</g>
	<path fill="#FFFFFF" d="M213,120.4l42.7,139.4l-0.4-1.9c5.9,18.9,25.9,29.4,44.8,23.6l1.6-0.5c18.9-5.8,29.4-25.9,23.6-44.8
		l0.5,1.9L281,97.6"/>
	<circle fill="#FFFFFF" cx="232.8" cy="97.6" r="10.3"/>
	<circle fill="#FFFFFF" cx="258.5" cy="63.6" r="18.4"/>
	<circle fill="#FFFFFF" cx="222.5" cy="63.6" r="7.1"/>
</g>
</svg>
